<svg width="92" height="36" viewBox="0 0 92 36" fill="none" xmlns="http://www.w3.org/2000/svg">
<g opacity="0.25">
<path d="M24.1737 28.7444C21.8112 28.2547 19.6227 27.6915 17.5238 26.9391L17.5235 26.939C15.4316 26.1875 13.4251 25.2522 11.7146 24.2115L24.1737 28.7444ZM24.1737 28.7444C26.5435 29.2393 29.0985 29.6579 32.1128 29.9669L32.1135 29.967C35.1208 30.271 38.5789 30.4658 42.0953 30.4469C42.0955 30.4469 42.0957 30.4469 42.096 30.4469L42.0932 29.9469L24.1737 28.7444ZM55.282 29.3702C53.9832 29.6768 52.628 29.9494 51.2658 30.1868L51.2647 30.187C48.8984 30.6049 46.523 30.9147 43.8832 31.1214L43.8823 31.1215C41.2421 31.3329 38.3372 31.4364 35.3092 31.3941C32.2802 31.347 29.1257 31.1588 26.1809 30.8207C23.2413 30.4826 20.51 29.9991 17.9681 29.3988L17.9673 29.3986C15.424 28.8027 13.0696 28.0955 10.9352 27.2688L10.9349 27.2687C8.79354 26.4411 6.8795 25.4983 5.30505 24.4164L5.30423 24.4159C3.72932 23.3383 2.49115 22.1195 1.69624 21.0403C0.916238 19.9703 0.579503 19.0479 0.511161 18.0514C0.446635 17.0372 0.656485 15.9316 1.2823 14.79C1.9088 13.6519 2.96126 12.4666 4.68384 11.2368L4.68507 11.2359C6.40821 9.99786 8.78524 8.72613 11.3444 7.7174C11.574 7.62709 11.805 7.53894 12.0363 7.453C11.4094 7.81081 10.8195 8.18614 10.2419 8.59874C9.09316 9.41925 7.99107 10.3872 7.20097 11.3254C6.40066 12.2758 5.92002 13.2022 5.6779 14.2737L5.67778 14.2742C5.43904 15.3358 5.4389 16.5304 5.72313 17.653C6.00652 18.7959 6.58241 19.8411 7.58224 20.9399L7.583 20.9407C8.57677 22.028 10.0014 23.172 11.7145 24.2115L55.282 29.3702Z" fill="white" stroke="black"/>
<path d="M23.7965 2.38964C22.2309 2.59046 20.7215 2.83007 19.3523 3.07268C21.1804 2.59645 23.1419 2.18515 25.1185 1.83737C27.7317 1.38147 30.3577 1.03388 33.2658 0.808371L33.2666 0.808313C36.1817 0.577923 39.3844 0.46033 42.7283 0.512065L42.729 0.512075C46.0744 0.559127 49.5547 0.766177 52.8018 1.1421L52.8024 1.14217C56.044 1.51331 59.059 2.04874 61.8663 2.70597C64.6739 3.36798 67.2696 4.15081 69.6313 5.06273C71.9902 5.97541 74.1075 7.01754 75.8474 8.21282L75.8486 8.21367C77.5942 9.4051 78.9638 10.7512 79.838 11.9515L79.8393 11.9533C80.7089 13.1366 81.0832 14.1625 81.1564 15.2724C81.2304 16.4001 80.9969 17.6332 80.3052 18.8926C79.6079 20.1583 78.4371 21.4718 76.5335 22.8395L76.5328 22.8399C74.625 24.2152 72.0022 25.6285 69.1699 26.7456L69.1696 26.7457C68.7051 26.9291 68.2352 27.1046 67.7674 27.2716C68.6858 26.774 69.5273 26.2513 70.3443 25.6651L70.3453 25.6643C71.6052 24.7555 72.8206 23.6935 73.6913 22.6604L73.6922 22.6593C74.5665 21.6161 75.0952 20.6049 75.3564 19.4279C75.619 18.2663 75.6188 16.9583 75.3112 15.7279L75.3108 15.7265C74.9948 14.4777 74.3731 13.3334 73.2723 12.1241L73.2717 12.1233C72.1783 10.927 70.607 9.66952 68.7243 8.52647C66.8397 7.38226 64.6347 6.34752 62.3241 5.5199C60.0124 4.69192 57.6064 4.07194 54.9979 3.53028C52.3879 2.98832 49.5683 2.52237 46.2508 2.18492L46.2508 2.18492C42.9311 1.84772 39.1183 1.63405 35.2427 1.65304C31.3672 1.67204 27.4335 1.92372 23.7965 2.38963L23.7965 2.38964Z" fill="white" stroke="black"/>
<path d="M13.8035 31.2041C14.0327 31.2564 14.2812 31.3119 14.5515 31.3713C15.3975 31.5585 16.4575 31.7839 17.6702 32.0206L17.5371 32.4659L17.6709 32.0208C17.789 32.0438 17.9086 32.067 18.0295 32.0902C17.9125 32.0561 17.7961 32.0218 17.6803 31.9872C16.591 31.6596 15.5607 31.3102 14.6381 30.9774L14.6588 30.883L14.6379 30.9774C14.4001 30.8916 14.1694 30.8069 13.9468 30.724C12.5827 30.4139 11.9049 30.2241 11.3866 30.0643L11.3175 30.2355M13.8035 31.2041L9.7526 29.6049C9.75896 29.5895 9.76467 29.5733 9.7696 29.5565C9.8989 29.597 10.0516 29.645 10.2202 29.698C10.4603 29.7735 10.7326 29.8591 11.015 29.9472M13.8035 31.2041C12.7816 30.8241 11.9264 30.4804 11.3175 30.2355M11.3175 30.2355L11.3864 30.0642C11.2552 30.0238 11.1343 29.9853 11.015 29.9472M11.3175 30.2355C11.1909 30.1844 11.0751 30.1376 10.9689 30.0948L11.015 29.9472M11.015 29.9472L10.968 30.0944" fill="white" stroke="black"/>
<path d="M15.6112 14.5729L15.6112 14.5729L15.6081 14.5758C14.9166 15.2179 14.555 16.0099 14.555 16.9319C14.555 17.8526 14.9157 18.6506 15.6096 19.2894C15.665 19.3404 15.7214 19.3894 15.7786 19.4363C15.6973 19.3728 15.6178 19.3054 15.5401 19.2342C14.8402 18.5879 14.5059 17.8263 14.5059 16.9319C14.5059 16.0372 14.8404 15.2755 15.5407 14.6291C15.6473 14.5307 15.7572 14.4397 15.8706 14.3562C15.782 14.4237 15.6955 14.496 15.6112 14.5729ZM20.4343 19.3784C20.4211 19.389 20.4078 19.3994 20.3946 19.4097V19.2146V17.4839H20.4343V19.3784Z" fill="white" stroke="black"/>
<path d="M26.5959 17.5097L26.3428 16.8708L25.6576 15.1411L25.1927 13.9678L24.7279 15.1411L24.0426 16.8708L23.7895 17.5097H23.789L23.6642 17.8263L22.7587 20.1232H22.7281L25.1905 13.8853L27.6569 20.1232H27.6267L26.7212 17.8263L26.5964 17.5097H26.5959Z" fill="white" stroke="black"/>
<path d="M29.9295 19.6638V20.1232H29.8945V13.7363H29.9295V19.6638Z" fill="white" stroke="black"/>
<path d="M38.6047 17.5097L38.3516 16.8708L37.6664 15.1411L37.2015 13.9678L36.7367 15.1411L36.0514 16.8708L35.7983 17.5097H35.7978L35.673 17.8263L34.7675 20.1232H34.7369L37.1993 13.8853L39.6657 20.1232H39.6355L38.73 17.8263L38.6052 17.5097H38.6047Z" fill="white" stroke="black"/>
<path d="M41.8044 20.1232L43.8454 16.8568L44.011 16.5917L43.8453 16.3267L42.2254 13.7363H42.2368L43.5928 15.9068L44.0148 16.5824L44.4398 15.9086L45.8097 13.7363H45.8192L44.1892 16.3255L44.0216 16.5916L44.189 16.8579L46.2408 20.1232H46.2305L44.4399 17.2801L44.0153 16.6058L43.5929 17.2815L41.8162 20.1232H41.8044Z" fill="white" stroke="black"/>
<path d="M50.9257 17.6599V17.5163L50.8495 17.3946L48.5592 13.7363H48.5703L50.517 16.8476L50.9399 17.5235L51.3642 16.8485L53.3203 13.7363H53.3398L51.0421 17.394L50.9655 17.5159V17.6599V20.1232H50.9257V17.6599Z" fill="white" stroke="black"/>
<path d="M59.4343 13.7363V20.1232H59.3945V13.7363H59.4343Z" fill="white" stroke="black"/>
<path d="M63.4116 13.7363H63.456V14.191V20.1232H63.4116V14.191V13.7363Z" fill="white" stroke="black"/>
</g>
</svg>
